<svg width="48" height="48" viewBox="0 0 48 48" fill="none" xmlns="http://www.w3.org/2000/svg">
  <rect width="48" height="48" rx="11" fill="#182033"/>
  <path d="M14 13h11.5c5.1 0 8.4 2.8 8.4 7.1 0 2.6-1.3 4.6-3.5 5.6 2.8.9 4.6 3.1 4.6 6.2 0 4.8-3.7 8.1-9.5 8.1H14V13Z" fill="#F7F8FA"/>
  <path d="M20.2 18.4v5.1h5c1.8 0 2.9-1 2.9-2.6s-1.1-2.5-2.9-2.5h-5Z" fill="#182033"/>
  <path d="M20.2 28.3v6.2h5.7c2 0 3.2-1.2 3.2-3.1s-1.2-3.1-3.2-3.1h-5.7Z" fill="#182033"/>
  <path d="M36 11v26" stroke="#D7A33F" stroke-width="3" stroke-linecap="round"/>
</svg>
